<svg xmlns="http://www.w3.org/2000/svg" xmlns:xlink="http://www.w3.org/1999/xlink" width="40mm" height="13.87mm" viewBox="0 0 113.39 39.32">
  <defs>
    <clipPath id="aba59ad6-fcf9-4a20-893d-088ca0f3514e" transform="translate(0 -0.36)">
      <polyline points="0 0 0 39.69 113.39 39.69 113.39 0" style="fill: none"/>
    </clipPath>
  </defs>
  <g id="b2fbad53-3a8c-4587-ae9d-3878ab614046" data-name="Ebene 2">
    <g id="b940762e-e7af-4b7a-bf20-83ccaa700c4e" data-name="Ebene 1">
      <g>
        <polyline points="19.96 30.41 19.96 39.14 103.97 39.14 103.97 30.41 19.96 30.41" style="fill: #fc0"/>
        <g style="clip-path: url(#aba59ad6-fcf9-4a20-893d-088ca0f3514e)">
          <polygon points="19.96 30.41 19.96 39.14 103.97 39.14 103.97 30.41 19.96 30.41 19.96 30.41" style="fill: none;stroke: #1d1d1b;stroke-width: 0.35710781812667847px"/>
        </g>
        <path d="M43.59,3.23A2.87,2.87,0,1,1,40.72.36a2.87,2.87,0,0,1,2.87,2.87" transform="translate(0 -0.36)" style="fill: #1d1d1b"/>
        <polyline points="38.59 8.91 42.85 8.91 42.85 27.8 38.59 27.8 38.59 8.91" style="fill: #1d1d1b"/>
        <path d="M80.88,11.49a3.26,3.26,0,0,0-6.15-.22L69,28.16h2.75l1.43-5H80l1.45,5h4.26l-4.8-16.67ZM73.8,21l2.35-8.13a.52.52,0,0,1,.5-.38.54.54,0,0,1,.5.37L79.35,21H73.8" transform="translate(0 -0.36)" style="fill: #1d1d1b"/>
        <polyline points="104.03 8.91 101 8.91 95.87 15.5 91.51 8.91 86.27 8.91 93.04 19.13 86.27 27.8 89.3 27.8 94.43 21.22 98.79 27.8 104.03 27.8 97.26 17.59 104.03 8.91" style="fill: #1d1d1b"/>
        <path d="M7.44,9.28H0V39.17H4.26V28.38H7.44a9.76,9.76,0,0,0,10-9.55A9.75,9.75,0,0,0,7.44,9.28ZM7,26.22H4.26V11.44H7c3.1,0,5.61,3.31,5.61,7.39S10.11,26.22,7,26.22" transform="translate(0 -0.36)" style="fill: #1d1d1b"/>
        <path d="M30.18,19.72A5.22,5.22,0,0,0,33.55,15c0-3.16-3-5.71-8.49-5.71H19.8V28.16h4.27V11.44h1a4,4,0,0,1,4.34,4c0,1.86-.77,3.9-4.34,3.24l4.69,9.49h5.33l-4.9-8.44" transform="translate(0 -0.36)" style="fill: #1d1d1b"/>
        <path d="M108.3,15.42h-.6v-4.7h2c1.22,0,1.64.46,1.64,1.3s-.63,1.25-1.45,1.31l1.39,2.09h-.67l-1.32-2.09h-1v2.09Zm.83-2.63c.66,0,1.57.11,1.57-.78,0-.65-.54-.74-1.11-.74H108.3v1.52h.83" transform="translate(0 -0.36)" style="fill: #1d1d1b"/>
        <path d="M113.39,13.1A4.11,4.11,0,1,1,109.28,9a4.11,4.11,0,0,1,4.11,4.1Zm-4.11-3.82a3.83,3.83,0,1,0,3.83,3.82,3.82,3.82,0,0,0-3.83-3.82" transform="translate(0 -0.36)" style="fill: #1d1d1b"/>
        <path d="M63.2,9.19a3.63,3.63,0,0,0-3.27,1.65L57,20.86l-3.11-9.81A3.16,3.16,0,0,0,50.8,9.19c-1.77,0-3.2,1.13-3.2,2.53V28.16h2.13V12.87a.45.45,0,0,1,.88-.13l4.33,14.69,0,.05v0h0a1.32,1.32,0,0,0,2.49,0h0v0a.25.25,0,0,1,0-.07l4.21-14.68a.45.45,0,0,1,.87.14V28.16h4.13V11.72c0-1.4-1.56-2.53-3.49-2.53" transform="translate(0 -0.36)" style="fill: #1d1d1b"/>
        <path d="M24.74,32.47h2a4.92,4.92,0,0,1,.88.05,1.26,1.26,0,0,1,.52.2,1.43,1.43,0,0,1,.39.42,1.2,1.2,0,0,1,0,1.23,1.18,1.18,0,0,1-.51.43,1.33,1.33,0,0,1,.7.46,1.2,1.2,0,0,1,.24.75,1.47,1.47,0,0,1-.16.67,1.19,1.19,0,0,1-.43.51,1.41,1.41,0,0,1-.67.24c-.17,0-.58,0-1.22,0h-1.7v-5Zm1,.83v1.15h.66c.39,0,.63,0,.73,0a.65.65,0,0,0,.4-.18.49.49,0,0,0,.15-.38.53.53,0,0,0-.13-.38.55.55,0,0,0-.38-.18H25.76Zm0,2v1.34h.93a3.27,3.27,0,0,0,.69,0,.6.6,0,0,0,.36-.19.72.72,0,0,0,0-.81.62.62,0,0,0-.31-.23,3.36,3.36,0,0,0-.89-.07h-.81" transform="translate(0 -0.36)" style="fill: #1d1d1b"/>
        <polyline points="32 37.1 32 32.1 35.7 32.1 35.7 32.95 33.01 32.95 33.01 34.06 35.51 34.06 35.51 34.91 33.01 34.91 33.01 36.25 35.79 36.25 35.79 37.1 32 37.1" style="fill: #1d1d1b"/>
        <path d="M38.86,37.47v-5H41a3.56,3.56,0,0,1,1.15.13,1.13,1.13,0,0,1,.58.48,1.4,1.4,0,0,1,.22.79,1.34,1.34,0,0,1-.33.93,1.56,1.56,0,0,1-1,.46,2.58,2.58,0,0,1,.53.42,5.6,5.6,0,0,1,.57.81l.6,1H42.14l-.72-1.1c-.26-.38-.44-.63-.53-.73a.72.72,0,0,0-.31-.2,1.49,1.49,0,0,0-.5-.06h-.21v2.09Zm1-2.89h.74a3.89,3.89,0,0,0,.9-.06.54.54,0,0,0,.28-.21.7.7,0,0,0,.1-.37.6.6,0,0,0-.14-.41.61.61,0,0,0-.37-.2H39.87v1.26" transform="translate(0 -0.36)" style="fill: #1d1d1b"/>
        <polyline points="46.13 37.1 46.13 32.15 47.15 32.15 47.15 36.25 49.64 36.25 49.64 37.1 46.13 37.1" style="fill: #1d1d1b"/>
        <polyline points="52.55 32.1 53.56 32.1 53.56 37.1 52.55 37.1 52.55 32.1" style="fill: #1d1d1b"/>
        <polyline points="56.73 37.1 56.73 32.1 57.71 32.1 59.77 35.47 59.77 32.1 60.7 32.1 60.7 37.1 59.69 37.1 57.66 33.81 57.66 37.1 56.73 37.1" style="fill: #1d1d1b"/>
        <path d="M74.61,35.63v-.85h2.16v2a2.48,2.48,0,0,1-.92.54,3.22,3.22,0,0,1-1.21.24,2.72,2.72,0,0,1-1.37-.33,2.13,2.13,0,0,1-.88-.95A3.12,3.12,0,0,1,72.1,35a2.86,2.86,0,0,1,.33-1.39,2.16,2.16,0,0,1,1-.93,2.52,2.52,0,0,1,1.19-.25,2.41,2.41,0,0,1,1.46.39,1.73,1.73,0,0,1,.67,1.07l-1,.2a1,1,0,0,0-.4-.59,1.18,1.18,0,0,0-.72-.21,1.37,1.37,0,0,0-1.06.42,1.78,1.78,0,0,0-.39,1.25,2,2,0,0,0,.4,1.34,1.31,1.31,0,0,0,1,.45,1.58,1.58,0,0,0,.63-.13,1.91,1.91,0,0,0,.55-.3v-.64H74.61" transform="translate(0 -0.36)" style="fill: #1d1d1b"/>
        <polyline points="79.91 37.1 79.91 32.1 81.42 32.1 82.33 35.51 83.21 32.1 84.73 32.1 84.73 37.1 83.8 37.1 83.79 33.17 82.81 37.1 81.83 37.1 80.85 33.17 80.84 37.1 79.91 37.1" style="fill: #1d1d1b"/>
        <path d="M88,32.47h2a5,5,0,0,1,.89.05,1.37,1.37,0,0,1,.52.2,1.4,1.4,0,0,1,.38.42,1.2,1.2,0,0,1,0,1.23,1.08,1.08,0,0,1-.51.43,1.29,1.29,0,0,1,.7.46,1.21,1.21,0,0,1,.25.75,1.61,1.61,0,0,1-.16.67,1.35,1.35,0,0,1-.43.51,1.45,1.45,0,0,1-.68.24c-.17,0-.57,0-1.22,0H88v-5Zm1,.83v1.15h.66c.39,0,.63,0,.73,0a.62.62,0,0,0,.4-.18.49.49,0,0,0,.15-.38.53.53,0,0,0-.13-.38.55.55,0,0,0-.37-.18H89Zm0,2v1.34h.93a3.27,3.27,0,0,0,.69,0,.58.58,0,0,0,.36-.19.6.6,0,0,0,.14-.43.59.59,0,0,0-.11-.38.62.62,0,0,0-.31-.23,3.31,3.31,0,0,0-.89-.07H89" transform="translate(0 -0.36)" style="fill: #1d1d1b"/>
        <polyline points="95.2 37.1 95.2 32.1 96.21 32.1 96.21 34.07 98.17 34.07 98.17 32.1 99.19 32.1 99.19 37.1 98.17 37.1 98.17 34.92 96.21 34.92 96.21 37.1 95.2 37.1" style="fill: #1d1d1b"/>
      </g>
    </g>
  </g>
</svg>
